# xmcd
#
# Track frame offsets:
#	150
#	15401
#	34240
#	56724
#	71240
#	95935
#	106819
#	127853
#	142777
#	153318
#	169888
#	186517
#
# Disc length: 2754 seconds
#
# Revision: 0
# Processed by: cddbd v1.5.1PL0 Copyright (c) Steve Scherf et al.
# Submitted via: dBpowerAMP V4.0
#
DISCID=a40ac00c
DTITLE=Bluff City Backsliders - Bluff City Backsliders
DYEAR=2003
DGENRE=Blues
TTITLE0=44 Blues
TTITLE1=Pony Blues
TTITLE2=Aunt Caroline Dyer Blues
TTITLE3=Let Me Play with Yo' Yo-Yo
TTITLE4=All Around Man
TTITLE5=Everybody's Talking about Sadie Green
TTITLE6=Careless Love Blues
TTITLE7=Saint James Infirmary
TTITLE8=Stay on the Right Side, Sister
TTITLE9=Boll Weevil Blues
TTITLE10=Step It Up and Go
TTITLE11=Everybody Ought to Make a Change
EXTD="A rootsy acoustic brew that evokes the city's sweet, lazy, jazzy past..."\n--The Memphis Flyer
EXTT0=
EXTT1=
EXTT2=
EXTT3=
EXTT4=
EXTT5=
EXTT6=
EXTT7=
EXTT8=
EXTT9=
EXTT10=
EXTT11=
PLAYORDER=
